<?xml version="1.0" encoding="UTF-8" standalone="no"?>
<!-- Created with Inkscape (http://www.inkscape.org/) -->

<svg
   width="136.39661"
   height="42.956848"
   viewBox="0 0 36.088268 11.365666"
   version="1.1"
   id="svg1"
   xml:space="preserve"
   xmlns="http://www.w3.org/2000/svg"
   xmlns:svg="http://www.w3.org/2000/svg"><defs
     id="defs1" /><g
     id="layer1"
     transform="translate(-142.53339,-177.27812)"><path
       id="path2"
       style="baseline-shift:baseline;display:inline;overflow:visible;vector-effect:none;fill:#ffffff;fill-opacity:0.87;stroke-width:1.00001;stroke-linejoin:round;enable-background:accumulate;stop-color:#000000"
       d="m 142.60428,178.87496 c -0.0467,0.56874 -0.0709,1.15012 -0.0709,1.7414 0,3.27526 0.75449,5.33234 2.08617,6.54327 1.33172,1.21093 3.12157,1.48415 4.96869,1.48415 1.84712,0 3.63701,-0.27323 4.96869,-1.48415 1.33168,-1.21093 2.08566,-3.26801 2.08566,-6.54327 0,-0.59128 -0.0241,-1.17267 -0.0709,-1.7414 -0.0728,-0.88524 -0.91551,-1.59638 -1.80397,-1.59638 h -10.35953 c -0.88846,0 -1.73121,0.71114 -1.80398,1.59638 z m 21.96861,0.001 c -0.0389,0.52086 -0.0589,1.05209 -0.0589,1.59162 0,3.27526 0.75239,5.33182 2.08411,6.54275 1.33168,1.21093 3.12208,1.48467 4.9692,1.48467 1.84712,0 3.63701,-0.27374 4.96869,-1.48467 1.33172,-1.21093 2.08566,-3.26749 2.08566,-6.54275 0,-0.53954 -0.02,-1.07079 -0.059,-1.59167 -0.0663,-0.88575 -0.90356,-1.5978 -1.79202,-1.5978 l -10.40604,0 c -0.88846,0 -1.72548,0.71208 -1.79165,1.59785 z" /></g></svg>
