<?xml version="1.0" encoding="UTF-8" standalone="no"?>
<!-- Created with Inkscape (http://www.inkscape.org/) -->

<svg
   width="42.557373"
   height="42.557404"
   viewBox="0 0 11.259971 11.25998"
   version="1.1"
   id="svg1"
   xml:space="preserve"
   xmlns="http://www.w3.org/2000/svg"
   xmlns:svg="http://www.w3.org/2000/svg"><defs
     id="defs1" /><g
     id="layer1"
     transform="translate(-274.82695,-115.45938)"><circle
       style="fill:#ffffff;fill-opacity:1;stroke:#000000;stroke-width:2.59092;stroke-linecap:round;stroke-linejoin:round;stroke-dasharray:none;stroke-dashoffset:48.5383;stroke-opacity:1;paint-order:stroke fill markers"
       id="circle62"
       cx="239.56033"
       cy="189.55093"
       r="4.335463"
       transform="rotate(-15)" /><path
       id="path63"
       style="stroke-width:11.7788;stroke-linecap:round;stroke-linejoin:round;stroke-dashoffset:48.5383;paint-order:stroke fill markers"
       d="m 274.10462,68.161003 h 0.16228 a 0.52743625,0.52743625 45 0 1 0.52744,0.527436 v 6.126377 a 0.52743625,0.52743625 135 0 1 -0.52744,0.527436 h -0.16228 a 0.52743625,0.52743625 45 0 1 -0.52744,-0.527436 v -6.126377 a 0.52743625,0.52743625 135 0 1 0.52744,-0.527436 z"
       transform="matrix(0.92863314,-0.2488265,0.14699537,0.54859418,14.863301,148.79976)" /><path
       id="path68"
       style="stroke-width:11.7788;stroke-linecap:round;stroke-linejoin:round;stroke-dashoffset:48.5383;paint-order:stroke fill markers"
       d="m 274.10462,68.161003 h 0.16228 a 0.52743625,0.52743625 45 0 1 0.52744,0.527436 v 6.126377 a 0.52743625,0.52743625 135 0 1 -0.52744,0.527436 h -0.16228 a 0.52743625,0.52743625 45 0 1 -0.52744,-0.527436 v -6.126377 a 0.52743625,0.52743625 135 0 1 0.52744,-0.527436 z"
       transform="matrix(0.22700555,0.84719624,-0.54859418,0.14699537,258.94358,-121.82088)" /></g></svg>
