<?xml version="1.0" encoding="UTF-8" standalone="no"?>
<!-- Created with Inkscape (http://www.inkscape.org/) -->

<svg
   width="45.890564"
   height="33.554535"
   viewBox="0 0 12.141878 8.8779707"
   version="1.1"
   id="svg1"
   xmlns="http://www.w3.org/2000/svg"
   xmlns:svg="http://www.w3.org/2000/svg">
  <defs
     id="defs1" />
  <g
     id="layer1"
     transform="translate(-166.68555,-68.836219)">
    <path
       id="path226"
       style="fill:#ffffff;fill-opacity:0.868895;stroke-width:2.92168;stroke-linejoin:round;stroke-dasharray:none"
       d="m 170.18578,73.562537 c 0,1.876492 -0.78357,2.732263 -1.75011,2.732263 -0.96656,0 -1.75013,-0.855771 -1.75013,-2.732263 0,-1.876502 0.78357,-3.397708 1.75013,-3.397708 0.96654,0 1.75011,1.521206 1.75011,3.397708 z" />
    <path
       id="path227"
       style="fill:#000000;fill-opacity:0.87;stroke-width:4.8432;stroke-linejoin:round;stroke-dasharray:none"
       d="m 172.00944,68.83664 c -0.56843,-0.01062 -1.04439,0.179164 -1.40882,0.532296 -0.81271,0.787549 0.0135,2.154601 1.20474,3.905214 -1.24576,1.712289 -2.11481,3.079114 -1.32725,3.891831 0.80716,0.832951 2.22297,0.267943 4.03667,-1.015022 1.67961,1.099129 3.22655,2.015093 3.94056,1.323211 0.73217,-0.709522 -0.16931,-2.328881 -1.28032,-4.093628 1.16595,-1.728935 2.11819,-3.336725 1.40867,-4.068919 -0.69188,-0.713991 -2.24919,0.152857 -3.96254,1.19863 -0.997,-0.753391 -1.88086,-1.659975 -2.61171,-1.673613 z" />
  </g>
</svg>
